<svg width="73" height="86" viewBox="0 0 73 86" fill="none" xmlns="http://www.w3.org/2000/svg">
<path d="M2.53077 85.8067V82.3276L0 77.5068H1.80678L3.70966 81.5701C4.19019 80.6265 5.24735 78.3927 5.61896 77.5068H6.42624C5.83039 78.6558 4.61946 81.0758 4.06846 82.2441V85.8067H2.53077Z" fill="white"/>
<path d="M11.9558 82.4944C11.4624 82.4944 11.0396 82.09 11.0396 81.5957C11.0396 81.0694 11.4624 80.6714 11.9558 80.6714C12.4491 80.6714 12.872 81.0629 12.872 81.5957C12.872 82.09 12.4491 82.4944 11.9558 82.4944Z" fill="white"/>
<path d="M18.3308 84.3502C18.8562 85.0242 19.8749 85.4286 20.8744 85.4286C22.2775 85.4286 22.8477 84.8701 22.8477 84.0485C22.8477 83.2974 22.3095 82.6876 20.5604 82.0714C18.7088 81.4231 18.1258 80.5886 18.1258 79.523C18.1258 78.2649 18.9907 77.3213 21.041 77.3213C22.175 77.3213 23.0463 77.6037 23.687 77.9247L23.4372 78.7913C22.7644 78.175 22.0597 77.8348 21.1627 77.8348C19.8749 77.8348 19.5161 78.3997 19.5161 79.0031C19.5161 79.7862 19.7531 80.1457 21.5087 80.7876C23.4692 81.5065 24.3342 82.3025 24.3342 83.6184C24.3342 85.0563 23.245 85.9999 20.9513 85.9999C19.8172 85.9999 18.696 85.6083 17.9912 85.2167L18.3308 84.3502Z" fill="white"/>
<path d="M34.7455 85.8068L33.5923 82.8668H30.1709C29.857 83.5858 29.2483 85.0557 28.96 85.8068H28.1655C28.8062 84.3496 30.6322 80.1002 31.7214 77.5069L32.8106 77.2373L36.5779 85.8068H34.7519H34.7455ZM31.888 78.6046L30.3631 82.3533H33.4129L31.888 78.6046Z" fill="white"/>
<path d="M41.1461 85.8069V85.1073C40.8578 85.4796 40.3837 85.9289 39.1984 85.9289C38.0131 85.9289 36.8662 85.0174 36.8662 83.2008C36.8662 81.5511 38.0002 80.1774 39.4803 80.1774C40.2619 80.1774 40.7553 80.3764 40.9795 80.5626V77.2568L42.4147 77.0449V85.8069H41.1461ZM41.0564 81.1916C40.8322 80.8322 40.2043 80.5882 39.7558 80.5882C38.9357 80.5882 38.2886 81.4741 38.2886 82.8478C38.2886 84.6002 38.9165 85.3384 39.8134 85.3384C40.3965 85.3384 41.0564 84.812 41.0564 84.1508V81.1981V81.1916Z" fill="white"/>
<path d="M45.567 85.8069L43.0234 80.3828H44.5932L46.2077 84.3113C46.7139 83.0082 47.2264 81.596 47.6429 80.3828H48.3477C47.8095 81.7051 46.9445 83.8619 46.1949 85.8069H45.567Z" fill="white"/>
<path d="M52.6527 85.9287C52.531 85.781 52.4285 85.4472 52.4092 85.2097C52.0184 85.6462 51.4354 85.9287 50.705 85.9287C49.4492 85.9287 48.9238 85.3895 48.9238 84.5229C48.9238 83.085 50.3462 82.6164 52.217 82.289C52.217 80.9988 52.0248 80.6522 51.3969 80.6522C50.6025 80.6522 50.0194 80.9539 49.4684 81.6728L49.0968 80.8897C49.6606 80.4596 50.532 80.1836 51.6212 80.1836C52.909 80.1836 53.6266 80.6458 53.6266 82.0387V84.5999C53.6266 84.9465 53.806 85.5114 54.043 85.7489L52.6527 85.9415V85.9287ZM52.2363 82.7384C50.8908 83.0529 50.1732 83.4702 50.1732 84.4715C50.1732 85.0107 50.6473 85.3124 51.1727 85.3124C51.5187 85.3124 51.9351 85.0749 52.2363 84.7155V82.7384Z" fill="white"/>
<path d="M58.6757 85.8071V82.1097C58.6757 81.1533 58.3169 80.7874 57.7595 80.7874C57.2533 80.7874 56.8304 81.1148 56.5613 81.4871V85.8135H55.1582V80.3894L56.5165 80.1904V80.9222C56.8048 80.5884 57.4135 80.1904 58.1631 80.1904C59.5855 80.1904 60.0788 80.8644 60.0788 82.1418V85.8135H58.6757V85.8071Z" fill="white"/>
<path d="M66.4857 84.3817C66.2358 85.2482 65.5118 85.9351 64.2561 85.9351C62.5518 85.9351 61.2832 84.8888 61.2832 83.0465C61.2832 81.2042 62.5966 80.1836 64.2561 80.1836C65.153 80.1836 65.8706 80.5752 66.2166 80.8704L65.9603 81.7563C65.5246 80.9603 64.9608 80.588 64.1664 80.588C63.436 80.588 62.7632 81.262 62.7632 82.5907C62.7632 84.4202 63.5513 85.2867 64.5252 85.2867C65.2684 85.2867 65.8898 84.9722 66.2422 84.234L66.4921 84.3881L66.4857 84.3817Z" fill="white"/>
<path d="M72.592 84.3817C72.31 85.2354 71.6373 85.9351 70.3367 85.9351C68.6324 85.9351 67.3574 84.8888 67.3574 83.0465C67.3574 81.2042 68.5491 80.1836 70.1957 80.1836C71.4964 80.1836 72.6817 81.1015 72.6817 82.9566H68.8567C68.9464 84.5871 69.7985 85.2803 70.593 85.2803C71.49 85.2803 72.0281 84.8182 72.3421 84.2469L72.592 84.3817ZM71.1824 82.5266C71.1824 81.1657 70.7211 80.5816 70.0612 80.5816C69.4013 80.5816 68.8374 81.2107 68.8374 82.5266H71.1824Z" fill="white"/>
<path d="M60.3479 12.2119C60.7708 11.968 61.3474 11.5829 61.9561 11.0051C62.5904 10.4017 63.2375 9.77909 63.5642 8.77129C63.686 8.37973 63.8718 7.60945 63.6539 6.5824C63.3912 6.67869 63.0068 6.80064 62.5391 6.89693C60.8605 7.23714 59.5022 6.9547 58.618 6.76213C57.3046 6.47327 56.4332 6.04319 54.9596 5.33067C54.1908 4.95837 53.3066 4.48336 51.7945 3.67455C51.0321 3.26373 50.6925 3.084 50.5452 3.00697C46.97 1.11335 41.1397 0.285292 41.1397 0.285292C41.1397 0.285292 35.6617 -0.356615 31.3305 0.285292C28.71 0.676855 24.5647 1.3316 20.1375 4.1239C18.3307 5.26649 14.9286 7.46823 12.6925 11.6727C11.4047 14.0927 11.0715 16.0954 11.0011 16.5833C10.8601 17.5269 10.4885 20.133 11.4944 23.0601C12.7309 26.6741 15.3322 28.664 17.69 30.4742C19.0803 31.5397 21.2523 32.9712 24.2444 34.0945C24.5775 33.7415 25.0196 33.2087 25.404 32.4833C25.955 31.4434 26.1024 30.5448 26.2049 29.8451C26.3266 29.0363 26.4291 27.791 26.1601 26.2697C25.4873 25.9937 24.5775 25.5507 23.6165 24.8382C23.0014 24.3825 21.6431 23.3682 20.5859 21.5773C20.1439 20.8327 18.9329 18.7273 19.1572 15.8579C19.3686 13.1234 20.7653 11.3004 21.4317 10.4531C23.2769 8.11014 25.5194 7.17295 27.403 6.38983C30.9205 4.92628 33.951 4.85567 35.7834 4.82357C37.5838 4.7979 40.1402 4.78505 43.2284 5.85062C44.7853 6.38982 47.0085 7.18579 49.1164 9.24631C51.282 11.3646 52.1085 13.6177 52.2815 14.1184C52.5954 15.0106 53.3066 17.1225 52.8581 19.7928C52.2494 23.4453 49.8724 25.6663 49.0715 26.3595C50.007 26.3595 51.4037 26.2504 52.9926 25.7369C54.0947 25.3774 56.2026 24.6649 58.0286 22.6557C58.4002 22.2513 59.9058 20.5246 60.5273 17.7452C61.0847 15.2353 60.6298 13.1748 60.3479 12.2055V12.2119Z" fill="white"/>
<path d="M63.5961 46.497C62.6735 43.7111 61.1422 41.9523 60.2772 40.9702C59.6686 40.2834 58.2462 38.7813 55.1004 36.9134C52.6785 35.4755 50.5898 34.641 47.335 33.5177L45.1823 29.0757C45.2143 28.8061 45.272 28.498 45.3745 28.1642C45.7717 26.8418 46.5598 26.0138 46.9506 25.603C47.3543 25.1857 47.7579 24.8648 48.1167 24.6272C47.7771 24.3962 47.1749 24.056 46.3548 23.9019C44.8876 23.6259 43.7343 24.1394 43.3883 24.3127C42.2671 24.8648 41.6712 25.7057 41.4278 26.0844C40.7679 24.9418 39.6594 24.2485 38.5382 24.3127C37.9103 24.3512 37.4234 24.6144 37.1415 24.8198C37.4618 25.0958 38.1153 25.757 38.3973 26.8162C38.5382 27.3361 38.551 27.8047 38.5254 28.1385L38.2691 30.6227C37.3273 30.3338 36.2893 30.0321 35.1553 29.6983L36.0523 23.414L40.6525 19.1004C40.8896 18.8886 41.2035 18.6639 41.6072 18.497C43.1064 17.8872 44.58 18.6383 44.8812 18.8052C44.9068 18.3943 44.8876 17.7011 44.516 16.9821C44.4391 16.8281 43.6318 15.3389 42.1774 15.2811C41.7097 15.2683 41.3317 15.4031 41.101 15.5058C41.101 15.2041 41.0562 14.7676 40.864 14.299C40.7422 14.0037 40.3514 13.028 39.3006 12.6043C38.2435 12.1807 37.2696 12.6172 37.103 12.7006C37.276 13.0537 37.3593 13.3618 37.4042 13.58C37.4811 13.9395 37.5515 14.2733 37.4298 14.6584C37.3721 14.851 37.2888 14.9858 37.2248 15.0821L32.6758 19.4663L28.6842 14.9666C28.633 14.8703 28.5561 14.7226 28.5112 14.5301C28.4215 14.1385 28.5112 13.8111 28.6201 13.4581C28.6842 13.2462 28.7931 12.9381 28.9918 12.6043C28.8252 12.5081 27.8962 11.9945 26.807 12.3347C25.7242 12.675 25.2629 13.6186 25.1219 13.901C24.8977 14.3567 24.8208 14.7868 24.7952 15.0885C24.5709 14.9666 24.2057 14.7997 23.738 14.7868C22.2836 14.7291 21.3674 16.1541 21.2777 16.3017C20.8548 16.9886 20.778 17.6818 20.7716 18.0926C21.0791 17.9514 22.604 17.3159 24.0584 18.0413C24.4492 18.2339 24.7439 18.4842 24.9617 18.7153L29.1007 23.2536L26.0061 46.6832C25.8011 47.1774 25.3205 48.1275 24.3403 48.9619C23.3664 49.7964 22.3605 50.1174 21.8415 50.2457C22.0017 50.6566 22.3797 51.4654 23.2254 52.0238C24.5261 52.8776 26.1534 52.6336 27.217 52.0238C27.8641 51.6515 28.2678 51.1765 28.4984 50.8556C28.633 51.1252 29.1007 51.9596 30.0938 52.3448C31.3175 52.8198 32.4259 52.2677 32.7591 52.1009C33.592 51.6836 34.0597 51.0481 34.2711 50.7336C34.1174 50.5924 33.8995 50.3741 33.6368 50.0981C33.1691 49.591 32.9321 49.3278 32.7591 48.9427C32.6694 48.7373 32.5541 48.3906 32.5476 47.922L34.0277 37.5809C34.2007 37.6194 34.3865 37.6644 34.5723 37.7093C34.899 37.7863 35.9242 38.0495 37.5451 38.5695C38.5318 38.8904 38.8714 39.0316 41.2996 39.9111C44.1764 40.9509 44.0162 40.8675 44.753 41.1628C46.0665 41.6891 47.1044 42.1706 48.373 42.7611C49.2892 43.1848 49.6095 43.3453 49.885 43.4929C50.955 44.0706 51.884 44.6868 52.3005 45.0078C53.6972 46.0862 55.094 48.2623 55.4463 50.7978C55.914 54.0908 54.434 56.5685 53.8061 57.5827C51.8392 60.7794 48.8535 62.0504 47.1685 62.7693C43.446 64.3549 40.1912 64.2201 36.6033 64.066C33.8803 63.9505 31.0933 63.8285 27.7232 62.5126C25.1155 61.4919 21.5596 60.099 19.3556 56.376C18.6316 55.1499 16.6454 51.2985 18.0165 47.2609C18.9199 44.6098 20.9445 42.851 21.8415 42.0743C22.9435 41.1178 24.0071 40.4888 24.7888 40.0844C23.706 39.6607 21.7646 39.0702 19.3556 39.2627C18.6508 39.3205 13.1985 39.8533 10.2128 44.6226C7.81656 48.4484 8.60462 52.4603 8.82887 53.6029C9.18125 55.4003 9.84759 56.7868 10.3794 57.7111C10.1551 57.8202 8.55978 58.6355 8.18176 60.4328C7.98314 61.3828 8.2138 62.1724 8.35475 62.5511C9.45676 62.2815 11.3981 61.9862 13.6534 62.5511C14.6849 62.8079 15.537 63.1866 16.1969 63.5461C17.2285 64.2329 18.6957 65.1316 20.5537 66.011C26.1534 68.6556 31.0612 69.0921 34.0917 69.3361C37.8398 69.6313 42.2351 69.9908 47.7131 68.431C50.5257 67.6286 55.5873 66.1265 59.7903 61.6075C61.123 60.1696 63.013 58.0963 63.8844 54.7391C64.8454 51.061 64.051 47.9413 63.5832 46.5291L63.5961 46.497ZM44.8171 32.6703L45.0349 30.5264L46.3227 33.1775C45.8486 33.017 45.3489 32.8501 44.8171 32.6703Z" fill="white"/>
<path d="M36.5649 41.9006C37.0646 41.6695 37.8911 41.3742 38.9163 41.4191C41.3958 41.5218 42.8822 43.4989 43.1064 43.807L41.6585 54.4948C41.6905 54.5911 42.2287 56.2407 43.3563 56.382C43.8625 56.4462 44.3302 56.1894 44.9325 55.8556C45.5091 55.5347 45.9319 55.1816 46.1946 54.9248C46.2395 55.1367 46.5022 56.4783 45.6116 57.6979C44.6249 59.0523 43.0552 59.1101 42.8758 59.1165C42.6067 59.1486 42.1582 59.1871 41.6008 59.1999C41.0626 59.2128 38.7433 59.2192 35.8665 58.2114C35.3476 58.0317 34.9311 57.8519 34.6492 57.7236C34.4506 57.8969 33.8675 58.3719 33.041 58.3847C31.5866 58.404 30.7858 56.9789 30.7153 56.8506C30.1835 55.8685 30.3949 54.8927 30.4654 54.6167C30.9011 54.7002 31.7724 54.8029 32.7335 54.4242C34.6876 53.6475 35.2194 51.5484 35.2707 51.3173L36.5777 41.9006H36.5649Z" fill="white"/>
<path d="M47.2266 45.7585C47.3419 45.5788 47.5533 45.322 47.8929 45.2C48.7194 44.9048 49.6036 45.6365 49.7381 45.7521L51.436 51.035C51.468 51.0735 51.9742 51.786 52.3714 51.6961C52.5508 51.6576 52.6469 51.4715 52.775 51.2275C52.8968 50.9964 52.9608 50.7654 52.9993 50.6113C53.0569 50.7076 53.4157 51.3046 53.3709 52.0107C53.326 52.7938 52.8263 53.0377 52.7686 53.0634C52.6853 53.1147 52.5508 53.1982 52.3714 53.2816C52.1984 53.3587 51.4424 53.6925 50.3019 53.609C50.0969 53.5962 49.9239 53.5705 49.8086 53.5512C49.783 53.6604 49.6869 53.9685 49.4178 54.0904C48.95 54.3023 48.399 53.7374 48.3478 53.686C47.9762 53.2945 47.848 52.8002 47.816 52.659C47.9762 52.6397 48.2773 52.5627 48.5144 52.2482C48.9949 51.6063 48.7386 50.5343 48.713 50.4187L47.2266 45.7585Z" fill="white"/>
</svg>
